<?xml version="1.0" encoding="utf-8"?>
<!-- Generator: Adobe Illustrator 24.3.0, SVG Export Plug-In . SVG Version: 6.00 Build 0)  -->
<svg version="1.1" id="Layer_1" xmlns="http://www.w3.org/2000/svg" xmlns:xlink="http://www.w3.org/1999/xlink" x="0px" y="0px"
	 viewBox="0 0 84 84" style="enable-background:new 0 0 84 84;" xml:space="preserve">
<style type="text/css">
	.st0{fill:#9097FD;}
</style>
<g id="XMLID_1_">
	<path id="XMLID_3_" class="st0" d="M68.2,28H57.4l-2.3-6.1c-0.3-0.9-1.2-1.5-2.1-1.5H31.7c-1,0-1.8,0.6-2.1,1.5L27.3,28H16.5
		c-2.1,0-3.8,1.7-3.8,3.8v30.4c0,2.1,1.7,3.8,3.8,3.8h51.6c2.1,0,3.8-1.7,3.8-3.8V31.8C72,29.7,70.3,28,68.2,28z M42.3,32.5
		c8,0,14.4,6.5,14.4,14.4s-6.5,14.4-14.4,14.4S27.9,54.9,27.9,47S34.4,32.5,42.3,32.5z"/>
	<path id="XMLID_2_" class="st0" d="M32.5,47c0,5.4,4.4,9.9,9.9,9.9s9.9-4.4,9.9-9.9s-4.4-9.9-9.9-9.9S32.5,41.5,32.5,47z"/>
</g>
</svg>
