<?xml version="1.0" encoding="utf-8"?>
<!-- Generator: Adobe Illustrator 24.3.0, SVG Export Plug-In . SVG Version: 6.00 Build 0)  -->
<svg version="1.1" id="Layer_1" xmlns="http://www.w3.org/2000/svg" xmlns:xlink="http://www.w3.org/1999/xlink" x="0px" y="0px"
	 viewBox="0 0 84 84" style="enable-background:new 0 0 84 84;" xml:space="preserve">
<style type="text/css">
	.st0{fill:#9097FD;}
</style>
<g>
	<g>
		<path class="st0" d="M42,52.3c2.8,0,5.2-1,7.3-3c2-2,3-4.4,3-7.3V25.6c0-2.8-1-5.2-3-7.3c-2-2-4.4-3-7.3-3s-5.2,1-7.3,3
			c-2,2-3,4.4-3,7.3V42c0,2.8,1,5.2,3,7.3C36.8,51.3,39.2,52.3,42,52.3z"/>
		<path class="st0" d="M59.9,36.5c-0.4-0.4-0.9-0.6-1.4-0.6c-0.6,0-1,0.2-1.4,0.6c-0.4,0.4-0.6,0.9-0.6,1.4V42c0,4-1.4,7.3-4.2,10.2
			S46,56.4,42,56.4s-7.3-1.4-10.2-4.2S27.6,46,27.6,42v-4.1c0-0.6-0.2-1-0.6-1.4c-0.4-0.4-0.9-0.6-1.4-0.6c-0.6,0-1,0.2-1.4,0.6
			c-0.4,0.4-0.6,0.9-0.6,1.4V42c0,4.7,1.6,8.8,4.7,12.3c3.2,3.5,7.1,5.5,11.7,6v4.2h-8.2c-0.6,0-1,0.2-1.4,0.6
			c-0.4,0.4-0.6,0.9-0.6,1.4c0,0.6,0.2,1,0.6,1.4c0.4,0.4,0.9,0.6,1.4,0.6h20.5c0.6,0,1-0.2,1.4-0.6c0.4-0.4,0.6-0.9,0.6-1.4
			c0-0.6-0.2-1-0.6-1.4c-0.4-0.4-0.9-0.6-1.4-0.6h-8.2v-4.2c4.6-0.5,8.5-2.5,11.7-6s4.7-7.6,4.7-12.3v-4.1
			C60.5,37.3,60.3,36.8,59.9,36.5z"/>
	</g>
</g>
</svg>
