<?xml version="1.0" encoding="utf-8"?>
<!-- Generator: Adobe Illustrator 24.3.0, SVG Export Plug-In . SVG Version: 6.00 Build 0)  -->
<svg version="1.1" id="Layer_1" xmlns="http://www.w3.org/2000/svg" xmlns:xlink="http://www.w3.org/1999/xlink" x="0px" y="0px"
	 viewBox="0 0 1920 939" style="enable-background:new 0 0 1920 939;" xml:space="preserve">
<style type="text/css">
	.st0{fill:#F6F7FB;}
	.st1{fill:#FFFFFF;}
</style>
<path class="st0" d="M648.2,0c69.2,63.3,112.7,154.3,112.7,255.5c0,191.1-154.9,346-346,346s-346-154.9-346-346
	C68.9,154.3,112.3,63.3,181.6,0H0v939h1382.2c-34-41.9-54.3-95.3-54.3-153.5c0-134.8,109.2-244,244-244s244,109.2,244,244
	c0,58.2-20.4,111.6-54.3,153.5H1920V0H648.2z"/>
<path class="st1" d="M68.9,255.5c0,191.1,154.9,346,346,346s346-154.9,346-346c0-101.2-43.4-192.2-112.7-255.5H181.6
	C112.3,63.3,68.9,154.3,68.9,255.5z"/>
<path class="st1" d="M1571.9,541.5c-134.8,0-244,109.2-244,244c0,58.2,20.4,111.6,54.3,153.5h379.3c34-41.9,54.3-95.3,54.3-153.5
	C1815.9,650.7,1706.6,541.5,1571.9,541.5z"/>
</svg>
