<?xml version="1.0" encoding="utf-8"?>
<!-- Generator: Adobe Illustrator 24.3.0, SVG Export Plug-In . SVG Version: 6.00 Build 0)  -->
<svg version="1.1" id="Layer_1" xmlns="http://www.w3.org/2000/svg" xmlns:xlink="http://www.w3.org/1999/xlink" x="0px" y="0px"
	 viewBox="0 0 1920 939" style="enable-background:new 0 0 1920 939;" xml:space="preserve">
<style type="text/css">
	.st0{fill:#F6F7FB;}
	.st1{fill:#FFFFFF;}
</style>
<path class="st0" d="M1560,263c142.8,0,270.9,63,358,162.8V0H-2v128.3C59.4,72.8,140.7,39,230,39c191.1,0,346,154.9,346,346
	S421.1,731,230,731c-89.3,0-170.6-33.8-232-89.3V939h1131.5c-28.6-61-44.5-129.2-44.5-201C1085,475.7,1297.7,263,1560,263z"/>
<path class="st1" d="M1918,425.8C1830.9,326,1702.8,263,1560,263c-262.3,0-475,212.7-475,475c0,71.8,16,140,44.5,201H1918V425.8z"/>
<path class="st1" d="M576,385c0-191.1-154.9-346-346-346C140.7,39,59.4,72.8-2,128.3v513.4C59.4,697.2,140.7,731,230,731
	C421.1,731,576,576.1,576,385z"/>
</svg>
