<?xml version="1.0" encoding="utf-8"?>
<!-- Generator: Adobe Illustrator 24.3.0, SVG Export Plug-In . SVG Version: 6.00 Build 0)  -->
<svg version="1.1" id="Layer_1" xmlns="http://www.w3.org/2000/svg" xmlns:xlink="http://www.w3.org/1999/xlink" x="0px" y="0px"
	 viewBox="0 0 1920 939" style="enable-background:new 0 0 1920 939;" xml:space="preserve">
<style type="text/css">
	.st0{fill:#F6F7FB;}
	.st1{fill:#E4E4E4;}
	.st2{clip-path:url(#SVGID_2_);}
</style>
<rect x="0" y="-0.3" class="st0" width="1920" height="939"/>
<rect x="417" y="296.7" class="st1" width="1608" height="20"/>
<g>
	<defs>
		<rect id="SVGID_1_" x="830" y="173.7" width="150" height="136"/>
	</defs>
	<clipPath id="SVGID_2_">
		<use xlink:href="#SVGID_1_"  style="overflow:visible;"/>
	</clipPath>
	<g class="st2">
		<path class="st1" d="M977.4,236.9h-33.1v-6.4c0-0.9-0.5-1.8-1.3-2.3l-35.4-19.9v-10.1h7v3.8c0,1.4,1.2,2.6,2.6,2.6h21.1
			c1.4,0,2.6-1.2,2.6-2.6c0-0.3-0.1-0.6-0.2-0.9l-2.1-6l2.1-5.9c0.5-1.4-0.2-2.8-1.6-3.3c-0.3-0.1-0.6-0.2-0.9-0.2h-9.6v-3.8
			c0-1.4-1.2-2.6-2.6-2.6h-18.5v-3.2c0-1.4-1.2-2.6-2.6-2.6s-2.6,1.2-2.6,2.6v32L867,228.2c-0.8,0.5-1.3,1.3-1.3,2.3v6.4h-33.1
			c-1.4,0-2.6,1.2-2.6,2.6v67.7c0,1.4,1.2,2.6,2.6,2.6h144.8c1.4,0,2.6-1.2,2.6-2.6v-67.7C980,238.1,978.9,236.9,977.4,236.9z
			 M928.7,195.6L928.7,195.6l-0.1-4.6h5.9l-1.1,3.3c-0.2,0.6-0.2,1.2,0,1.8l1.2,3.3h-14.9v-1.3h6.4
			C927.6,198.2,928.7,197.1,928.7,195.6z M907.6,184.6h16v3.8v4.6h-16V184.6z M865.7,304.5h-30.5v-62.5h30.5V304.5z M902.4,304.5
			h-13.6V275h13.6V304.5z M921.2,304.5h-13.6V275h13.6V304.5z M939.3,304.5h-12.9v-32.1c0-1.4-1.2-2.6-2.6-2.6h-37.5
			c-1.4,0-2.6,1.2-2.6,2.6v32.1h-12.9v-72.4l34.3-19.3l34.2,19.2l0.1,7.4V304.5z M974.8,304.5h-30.5v-62.5h30.5V304.5z"/>
		<path class="st1" d="M905,220.7c-6,0-10.8,4.9-10.8,10.9s4.9,10.8,10.9,10.8c6,0,10.8-4.9,10.8-10.9
			C915.8,225.6,911,220.7,905,220.7z M905,237.3c-3.1,0-5.7-2.6-5.6-5.7c0-3.1,2.5-5.6,5.6-5.6c3.1,0,5.7,2.6,5.7,5.7h0
			C910.7,234.7,908.2,237.3,905,237.3z"/>
		<path class="st1" d="M859.3,247.8h-5.2v10.3h5.2V247.8z"/>
		<path class="st1" d="M889,247.8h-10.3v5.2H889V247.8z"/>
		<path class="st1" d="M910.2,247.8h-10.3v5.2h10.3V247.8z"/>
		<path class="st1" d="M931.4,247.8h-10.3v5.2h10.3V247.8z"/>
		<path class="st1" d="M889,259.8h-10.3v5.2H889V259.8z"/>
		<path class="st1" d="M910.2,259.8h-10.3v5.2h10.3V259.8z"/>
		<path class="st1" d="M931.4,259.8h-10.3v5.2h10.3V259.8z"/>
		<path class="st1" d="M859.3,268.1h-5.2v10.3h5.2V268.1z"/>
		<path class="st1" d="M859.3,288.5h-5.2v10.3h5.2V288.5z"/>
		<path class="st1" d="M955.9,247.8h-5.2v10.3h5.2V247.8z"/>
		<path class="st1" d="M968.6,247.8h-5.2v10.3h5.2V247.8z"/>
		<path class="st1" d="M955.9,268.1h-5.2v10.3h5.2V268.1z"/>
		<path class="st1" d="M968.6,268.1h-5.2v10.3h5.2V268.1z"/>
		<path class="st1" d="M955.9,288.5h-5.2v10.3h5.2V288.5z"/>
		<path class="st1" d="M968.6,288.5h-5.2v10.3h5.2V288.5z"/>
	</g>
</g>
</svg>
