<?xml version="1.0" encoding="utf-8"?>
<!-- Generator: Adobe Illustrator 24.3.0, SVG Export Plug-In . SVG Version: 6.00 Build 0)  -->
<svg version="1.1" id="Layer_1" xmlns="http://www.w3.org/2000/svg" xmlns:xlink="http://www.w3.org/1999/xlink" x="0px" y="0px"
	 viewBox="0 0 30.1 30.1" style="enable-background:new 0 0 30.1 30.1;" xml:space="preserve">
<style type="text/css">
	.st0{fill:#FFFFFF;}
	.st1{fill:#2D4456;}
	.st2{fill:#253847;}
	.st3{fill:#FFCF4D;}
	.st4{fill:#FF9517;}
	.st5{fill:#FFC4AD;}
	.st6{fill:#FFE0CC;}
	.st7{fill:#FFCEB3;}
	.st8{fill:#FF5876;}
</style>
<g>
	<path class="st0" d="M30.1,15.1c0-8.3-6.7-15-15-15s-15,6.7-15,15c0,4.6,2,8.6,5.2,11.4c0.1-0.5,0.3-1,0.5-1.5c0,0,0,0,0,0h0
		c0-0.8-0.1-1.6-0.1-2.4h0C5.2,9.2,6.7,1.9,15.1,1.9c8.4,0,9.9,7.2,9.4,20.6h0c0,0.8-0.1,1.6-0.1,2.4h0h0c0.2,0.5,0.4,1,0.5,1.5
		C28,23.7,30.1,19.6,30.1,15.1z"/>
	<path class="st1" d="M10.9,19.5c-1.3-1.1-2.1-2.8-2.1-4.6v-0.6c0,0,0,0,0,0v-0.6v-1.8c0-0.1,0.1-0.2,0.2-0.3c1.6-0.7,2.5-2.2,2.8-3
		c0.1-0.2,0.4-0.3,0.5-0.1c2.4,2.7,7.3,2.7,8.6,2.6c0.2,0,0.3,0.1,0.3,0.3v2.3v0c0,0,0,0,0,0v1.2c0,1.8-0.8,3.5-2.1,4.6
		c2.1,0.4,3.9,1.5,5.2,3v0h0c0.5-13.3-0.9-20.6-9.4-20.6c-8.4,0-9.9,7.2-9.4,20.6h0v0C6.9,21,8.8,19.9,10.9,19.5z"/>
	<path class="st2" d="M7.7,22.5h-2c0,0.8,0.1,1.6,0.1,2.4h0c0,0,0,0,0,0C6.3,24,6.9,23.2,7.7,22.5z"/>
	<path class="st2" d="M24.3,24.9L24.3,24.9L24.3,24.9c0-0.8,0.1-1.6,0.1-2.4h-2C23.2,23.2,23.9,24,24.3,24.9z"/>
	<path class="st2" d="M19.3,19.5c-0.5,0.4-1,0.8-1.6,1c0.9,0,1.8,0.2,2.7,0.6l0,0c0,0,0,0,0.1,0c0,0,0.1,0,0.1,0c0,0,0,0,0,0
		c0.7,0.3,1.4,0.8,2,1.3h2v0C23.2,21,21.4,19.9,19.3,19.5z"/>
	<path class="st2" d="M9.6,21.2L9.6,21.2c0.9-0.4,1.8-0.6,2.8-0.7c-0.6-0.3-1.1-0.6-1.6-1c-2.1,0.4-3.9,1.5-5.2,3v0h2
		C8.3,22,8.9,21.5,9.6,21.2z"/>
	<path class="st3" d="M18.6,24.9c-1.2,1.4-2.2,0.8-2.8,0c-0.5,0-0.9,0-1.4,0c-0.6,0.8-1.6,1.4-2.8,0c-3.2,0-5.7,0-5.7,0
		c-0.2,0.5-0.4,1-0.5,1.5c1.1,0.9,2.3,1.7,3.6,2.3c0,0,0.1,0,0.1,0c0.2,0,0.3,0.1,0.4,0.2c1.7,0.7,3.6,1.1,5.6,1.1
		c2,0,3.9-0.4,5.6-1.1c0.1-0.1,0.2-0.2,0.4-0.2c0,0,0.1,0,0.1,0c1.3-0.6,2.5-1.4,3.6-2.3c-0.1-0.5-0.3-1-0.5-1.5
		C24.3,24.9,21.8,24.9,18.6,24.9z"/>
	<path class="st3" d="M14.4,24.9c0.5,0,0.9,0,1.4,0c-0.4-0.5-0.7-1.1-0.7-1.1C15.1,23.8,14.8,24.4,14.4,24.9z"/>
	<path class="st3" d="M10.1,22.5H7.7c-0.8,0.7-1.4,1.5-1.8,2.4c0,0,2.5,0,5.7,0C11.1,24.4,10.6,23.6,10.1,22.5z"/>
	<path class="st3" d="M22.5,22.5H20c-0.5,1.1-1,1.9-1.4,2.4c3.2,0,5.7,0,5.7,0C23.9,24,23.2,23.2,22.5,22.5z"/>
	<path class="st3" d="M9.6,21.2L9.6,21.2c-0.7,0.3-1.4,0.8-2,1.3h2.5C10,22.1,9.8,21.7,9.6,21.2C9.6,21.2,9.6,21.2,9.6,21.2z"/>
	<path class="st3" d="M22.5,22.5c-0.6-0.5-1.2-0.9-2-1.3c-0.2,0.5-0.3,0.9-0.5,1.3H22.5z"/>
	<path class="st3" d="M20.4,21.2L20.4,21.2C20.4,21.2,20.4,21.2,20.4,21.2C20.4,21.2,20.4,21.2,20.4,21.2z"/>
	<path class="st4" d="M12.6,20.7c-0.1,0-0.1-0.1-0.2-0.1c-1,0-2,0.3-2.8,0.7l3.1,0C12.7,21,12.6,20.8,12.6,20.7z"/>
	<path class="st4" d="M14.4,24.9c-1,0-1.9,0-2.8,0C12.7,26.3,13.7,25.7,14.4,24.9z"/>
	<path class="st4" d="M15.1,23.8L15.1,23.8c-1.1,0-1.7-0.6-2-1.3h-2.9c0.5,1.1,1,1.9,1.4,2.4c0.9,0,1.9,0,2.8,0
		C14.8,24.4,15.1,23.8,15.1,23.8L15.1,23.8z"/>
	<path class="st4" d="M12.7,21.2l-3.1,0c0,0,0,0,0,0c0.2,0.5,0.3,0.9,0.5,1.3h2.9C12.9,22.1,12.7,21.6,12.7,21.2z"/>
	<path class="st4" d="M17.5,21.2l2.9,0c-0.8-0.3-1.7-0.6-2.7-0.6c-0.1,0-0.1,0.1-0.2,0.1C17.5,20.8,17.5,20.9,17.5,21.2z"/>
	<path class="st4" d="M20.5,21.2C20.5,21.2,20.4,21.2,20.5,21.2C20.4,21.2,20.5,21.2,20.5,21.2C20.5,21.2,20.5,21.2,20.5,21.2z"/>
	<path class="st4" d="M18.6,24.9c-0.9,0-1.9,0-2.8,0C16.4,25.7,17.4,26.3,18.6,24.9z"/>
	<path class="st4" d="M17.1,22.5c-0.3,0.7-0.9,1.3-2,1.3v0c0,0,0.3,0.6,0.7,1.1c1,0,1.9,0,2.8,0c0.4-0.5,0.9-1.3,1.4-2.4H17.1z"/>
	<path class="st4" d="M17.1,22.5H20c0.2-0.4,0.3-0.8,0.5-1.3c0,0-0.1,0-0.1,0c0,0-0.1,0-0.1,0l-2.9,0C17.4,21.6,17.3,22,17.1,22.5z"
		/>
	<polygon class="st4" points="15.1,23.8 15.1,23.8 15.1,23.8 	"/>
	<path class="st5" d="M15.1,21.2c-0.8,0-1.6-0.2-2.3-0.5l0.4,0.5l3.9,0l0.4-0.5C16.7,21,15.9,21.2,15.1,21.2z"/>
	<polygon class="st5" points="14.1,22.5 15.1,23.8 16,22.5 	"/>
	<polygon class="st5" points="14.1,22.5 16,22.5 17,21.2 13.1,21.2 	"/>
	<path class="st5" d="M12.7,20.7c0,0-0.1,0-0.1,0c0,0.1,0,0.3,0.1,0.5l0.4,0L12.7,20.7z"/>
	<path class="st5" d="M13.1,22.5c0.3,0.7,0.9,1.3,2,1.3l-1-1.3H13.1z"/>
	<path class="st5" d="M13.1,21.2l-0.4,0c0.1,0.4,0.2,0.9,0.4,1.3h1L13.1,21.2z"/>
	<path class="st5" d="M17,21.2l0.4,0c0-0.2,0-0.4,0.1-0.5c0,0-0.1,0-0.1,0L17,21.2z"/>
	<path class="st5" d="M15.1,23.8c1.1,0,1.7-0.6,2-1.3h-1L15.1,23.8z"/>
	<path class="st5" d="M17,21.2l-1,1.3h1c0.2-0.5,0.3-1,0.4-1.3L17,21.2z"/>
	<path class="st6" d="M12.4,19.4c0,0,0.1,0,0.1,0h5c0,0,0.1,0,0.1,0c2.1-1,3.6-3.2,3.6-5.7v0v-2.3c0-0.2-0.2-0.3-0.3-0.3
		c-1.3,0.1-6.2,0-8.6-2.6c-0.2-0.2-0.4-0.1-0.5,0.1c-0.4,0.8-1.2,2.3-2.8,3c-0.1,0.1-0.2,0.2-0.2,0.3v1.8v0.6c0,0,0,0,0,0v-0.6
		C8.8,16.2,10.3,18.4,12.4,19.4z M17.6,13c0-0.3,0.2-0.5,0.5-0.5c0.3,0,0.5,0.2,0.5,0.5v1.4c0,0.3-0.2,0.5-0.5,0.5
		c-0.3,0-0.5-0.2-0.5-0.5V13z M14.2,16.7L14.2,16.7c0,0,0.2,0.4,0.9,0.4c0.7,0,0.9-0.4,0.9-0.4l0,0c0.2-0.5,1-0.4,1,0.2
		c0,0.1,0,0.2-0.1,0.2l0,0c-0.2,0.4-0.7,1-1.8,1c-1.1,0-1.7-0.7-1.8-1l0,0C13,16.4,13.9,16,14.2,16.7z M11.5,13
		c0-0.3,0.2-0.5,0.5-0.5c0.3,0,0.5,0.2,0.5,0.5v1.4c0,0.3-0.2,0.5-0.5,0.5c-0.3,0-0.5-0.2-0.5-0.5V13z"/>
	<path class="st6" d="M17.7,19.4c0,0-0.1,0-0.1,0h-5c0,0-0.1,0-0.1,0c0.8,0.4,1.7,0.6,2.6,0.6C16,20,16.9,19.7,17.7,19.4z"/>
	<path class="st7" d="M18.7,19.4c0.2,0,0.4,0.1,0.6,0.1c1.3-1.1,2.1-2.8,2.1-4.6v-1.2c0,0,0,0,0,0v0.6
		C21.3,16.4,20.3,18.3,18.7,19.4z"/>
	<path class="st7" d="M8.8,14.3v0.6c0,1.8,0.8,3.5,2.1,4.6c0.2,0,0.4-0.1,0.6-0.1C9.9,18.3,8.8,16.4,8.8,14.3z"/>
	<path class="st7" d="M12.6,20.6h4.9c0,0,0,0,0,0c0.1,0,0.1,0,0.2,0c0.6-0.3,1.1-0.6,1.6-1c-0.2,0-0.4-0.1-0.6-0.1
		c-1,0.7-2.2,1.1-3.6,1.1s-2.6-0.4-3.6-1.1c-0.2,0-0.4,0.1-0.6,0.1c0.5,0.4,1,0.8,1.6,1C12.5,20.6,12.6,20.6,12.6,20.6
		C12.6,20.6,12.6,20.6,12.6,20.6z"/>
	<path class="st7" d="M12.6,20.6c-0.1,0-0.1,0-0.2,0c0.1,0,0.1,0.1,0.2,0.1C12.6,20.6,12.6,20.6,12.6,20.6z"/>
	<path class="st7" d="M17.5,20.7c0.1,0,0.1-0.1,0.2-0.1c-0.1,0-0.1,0-0.2,0C17.5,20.6,17.5,20.6,17.5,20.7z"/>
	<path class="st7" d="M15.1,21.2c0.8,0,1.6-0.2,2.3-0.5l0.1-0.1c0,0,0,0,0,0h-4.9c0,0,0,0,0,0l0.1,0.1C13.5,21,14.2,21.2,15.1,21.2z
		"/>
	<path class="st7" d="M12.6,20.6c0,0,0,0,0,0.1c0,0,0.1,0,0.1,0L12.6,20.6z"/>
	<path class="st7" d="M17.5,20.7c0-0.1,0-0.1,0-0.1l-0.1,0.1C17.4,20.7,17.5,20.7,17.5,20.7z"/>
	<path class="st7" d="M11.5,19.4c0.3,0,0.6-0.1,0.9-0.1c-2.1-1-3.6-3.2-3.6-5.7v0.6C8.8,16.4,9.9,18.3,11.5,19.4z"/>
	<path class="st7" d="M17.7,19.4c0.3,0,0.6,0,0.9,0.1c1.6-1.1,2.7-3,2.7-5.1v-0.6C21.3,16.2,19.8,18.4,17.7,19.4z"/>
	<path class="st7" d="M15.1,20c-0.9,0-1.8-0.2-2.6-0.6c-0.3,0-0.6,0-0.9,0.1c1,0.7,2.2,1.1,3.6,1.1s2.6-0.4,3.6-1.1
		c-0.3,0-0.6-0.1-0.9-0.1C16.9,19.7,16,20,15.1,20z"/>
	<path class="st4" d="M9,28.7C9,28.7,9,28.7,9,28.7c0.1,0.1,0.2,0.2,0.4,0.2C9.3,28.8,9.2,28.7,9,28.7z"/>
	<path class="st4" d="M21.1,28.7c-0.2,0-0.3,0.1-0.4,0.2C20.9,28.9,21,28.8,21.1,28.7C21.2,28.7,21.2,28.7,21.1,28.7z"/>
	<path class="st1" d="M12,14.9c0.3,0,0.5-0.2,0.5-0.5V13c0-0.3-0.2-0.5-0.5-0.5c-0.3,0-0.5,0.2-0.5,0.5v1.4
		C11.5,14.6,11.8,14.9,12,14.9z"/>
	<path class="st1" d="M18.1,14.9c0.3,0,0.5-0.2,0.5-0.5V13c0-0.3-0.2-0.5-0.5-0.5c-0.3,0-0.5,0.2-0.5,0.5v1.4
		C17.6,14.6,17.8,14.9,18.1,14.9z"/>
	<path class="st8" d="M13.2,17c0.2,0.4,0.7,1,1.8,1c1.1,0,1.7-0.7,1.8-1l0,0c0-0.1,0.1-0.1,0.1-0.2c0-0.6-0.8-0.7-1-0.2l0,0
		c0,0-0.2,0.4-0.9,0.4c-0.7,0-0.9-0.4-0.9-0.4l0,0C13.9,16,13,16.4,13.2,17L13.2,17z"/>
</g>
</svg>
