<?xml version="1.0" encoding="utf-8"?>
<!-- Generator: Adobe Illustrator 24.3.0, SVG Export Plug-In . SVG Version: 6.00 Build 0)  -->
<svg version="1.1" id="Layer_1" xmlns="http://www.w3.org/2000/svg" xmlns:xlink="http://www.w3.org/1999/xlink" x="0px" y="0px"
	 viewBox="0 0 78.6 78.6" style="enable-background:new 0 0 78.6 78.6;" xml:space="preserve">
<style type="text/css">
	.st0{fill:none;stroke:#C4C7CE;}
	.st1{clip-path:url(#SVGID_2_);}
	.st2{fill:#C4C7CE;}
	.st3{clip-path:url(#SVGID_4_);}
</style>
<g>
	<circle class="st0" cx="39.3" cy="39.3" r="38"/>
	<g>
		<g>
			<defs>
				<rect id="SVGID_1_" x="19.3" y="16.1" width="40.1" height="46.3"/>
			</defs>
			<clipPath id="SVGID_2_">
				<use xlink:href="#SVGID_1_"  style="overflow:visible;"/>
			</clipPath>
			<g class="st1">
				<path class="st2" d="M39.1,38.6c3.2,0,6-1.1,8.2-3.2c2.2-2.1,3.4-4.9,3.4-7.8c0-3.1-1.1-5.7-3.4-7.8s-5-3.2-8.2-3.2
					c-3.2,0-6,1.1-8.2,3.2s-3.4,4.9-3.4,7.8c0,3.1,1.1,5.7,3.4,7.8C33.1,37.5,35.8,38.6,39.1,38.6z"/>
				<path class="st2" d="M59.4,51.9c-0.1-0.9-0.2-1.9-0.4-3c-0.2-1-0.5-2-0.7-3c-0.2-0.9-0.7-1.9-1.2-2.7c-0.5-0.9-1.2-1.7-1.9-2.4
					c-0.7-0.7-1.6-1.2-2.7-1.6c-1-0.4-2.2-0.6-3.5-0.6c-0.5,0-1,0.2-1.9,0.7c-0.6,0.4-1.2,0.7-2,1.2c-0.6,0.4-1.5,0.7-2.5,1.1
					c-1,0.4-2.1,0.5-3.1,0.5s-2.1-0.1-3.1-0.5c-1-0.4-1.9-0.7-2.5-1.1c-0.7-0.5-1.4-0.9-2-1.2c-0.9-0.6-1.4-0.7-1.9-0.7
					c-1.2,0-2.4,0.2-3.5,0.6c-1.1,0.4-2,1-2.7,1.6s-1.4,1.5-1.9,2.4c-0.5,0.9-1,1.9-1.2,2.7c-0.2,0.9-0.5,1.9-0.7,3
					c-0.2,1-0.4,2-0.4,3c-0.1,0.9-0.1,1.9-0.1,2.7c0,2.4,0.7,4.4,2.4,5.9c1.6,1.4,3.6,2.1,6.1,2.1H51c2.5,0,4.6-0.7,6.1-2.1
					c1.6-1.5,2.4-3.4,2.4-5.9C59.5,53.6,59.4,52.8,59.4,51.9z"/>
			</g>
		</g>
	</g>
	<circle class="st0" cx="39.3" cy="39.3" r="38"/>
	<g>
		<g>
			<defs>
				<rect id="SVGID_3_" x="19.3" y="16.1" width="40.1" height="46.3"/>
			</defs>
			<clipPath id="SVGID_4_">
				<use xlink:href="#SVGID_3_"  style="overflow:visible;"/>
			</clipPath>
			<g class="st3">
				<path class="st2" d="M39.1,38.6c3.2,0,6-1.1,8.2-3.2c2.2-2.1,3.4-4.9,3.4-7.8c0-3.1-1.1-5.7-3.4-7.8s-5-3.2-8.2-3.2
					c-3.2,0-6,1.1-8.2,3.2s-3.4,4.9-3.4,7.8c0,3.1,1.1,5.7,3.4,7.8C33.1,37.5,35.8,38.6,39.1,38.6z"/>
				<path class="st2" d="M59.4,51.9c-0.1-0.9-0.2-1.9-0.4-3c-0.2-1-0.5-2-0.7-3c-0.2-0.9-0.7-1.9-1.2-2.7c-0.5-0.9-1.2-1.7-1.9-2.4
					c-0.7-0.7-1.6-1.2-2.7-1.6c-1-0.4-2.2-0.6-3.5-0.6c-0.5,0-1,0.2-1.9,0.7c-0.6,0.4-1.2,0.7-2,1.2c-0.6,0.4-1.5,0.7-2.5,1.1
					c-1,0.4-2.1,0.5-3.1,0.5s-2.1-0.1-3.1-0.5c-1-0.4-1.9-0.7-2.5-1.1c-0.7-0.5-1.4-0.9-2-1.2c-0.9-0.6-1.4-0.7-1.9-0.7
					c-1.2,0-2.4,0.2-3.5,0.6c-1.1,0.4-2,1-2.7,1.6s-1.4,1.5-1.9,2.4c-0.5,0.9-1,1.9-1.2,2.7c-0.2,0.9-0.5,1.9-0.7,3
					c-0.2,1-0.4,2-0.4,3c-0.1,0.9-0.1,1.9-0.1,2.7c0,2.4,0.7,4.4,2.4,5.9c1.6,1.4,3.6,2.1,6.1,2.1H51c2.5,0,4.6-0.7,6.1-2.1
					c1.6-1.5,2.4-3.4,2.4-5.9C59.5,53.6,59.4,52.8,59.4,51.9z"/>
			</g>
		</g>
	</g>
</g>
</svg>
