<?xml version="1.0" encoding="utf-8"?>
<!-- Generator: Adobe Illustrator 24.3.0, SVG Export Plug-In . SVG Version: 6.00 Build 0)  -->
<svg version="1.1" id="Layer_1" xmlns="http://www.w3.org/2000/svg" xmlns:xlink="http://www.w3.org/1999/xlink" x="0px" y="0px"
	 viewBox="0 0 342 36" style="enable-background:new 0 0 342 36;" xml:space="preserve">
<style type="text/css">
	.st0{fill:#9097FD;fill-opacity:0.8;}
</style>
<path class="st0" d="M19.2,18L2.8,33.6V2.4L19.2,18z"/>
<path class="st0" d="M147.2,18l-16.5,15.6V2.4L147.2,18z"/>
<path class="st0" d="M275.2,18l-16.5,15.6V2.4L275.2,18z"/>
<path class="st0" d="M51.2,18L34.8,33.6V2.4L51.2,18z"/>
<path class="st0" d="M179.2,18l-16.5,15.6V2.4L179.2,18z"/>
<path class="st0" d="M307.2,18l-16.5,15.6V2.4L307.2,18z"/>
<path class="st0" d="M83.2,18L66.8,33.6V2.4L83.2,18z"/>
<path class="st0" d="M211.2,18l-16.5,15.6V2.4L211.2,18z"/>
<path class="st0" d="M339.2,18l-16.5,15.6V2.4L339.2,18z"/>
<path class="st0" d="M115.2,18L98.8,33.6V2.4L115.2,18z"/>
<path class="st0" d="M243.2,18l-16.5,15.6V2.4L243.2,18z"/>
</svg>
