<?xml version="1.0" encoding="utf-8"?>
<!-- Generator: Adobe Illustrator 24.3.0, SVG Export Plug-In . SVG Version: 6.00 Build 0)  -->
<svg version="1.1" id="Layer_1" xmlns="http://www.w3.org/2000/svg" xmlns:xlink="http://www.w3.org/1999/xlink" x="0px" y="0px"
	 viewBox="0 0 960 1080" style="enable-background:new 0 0 960 1080;" xml:space="preserve">
<style type="text/css">
	.st0{fill:#F6F7FB;}
	.st1{fill:#C4C7CE;}
</style>
<rect x="-0.2" class="st0" width="960" height="1080"/>
<path class="st1" d="M605.2,703.1c4.9,0,8.8-4,8.8-8.8s-4-8.8-8.8-8.8c-4.9,0-8.8,4-8.8,8.8S600.4,703.1,605.2,703.1z"/>
<path class="st1" d="M612.4,707.5h-14.3c-5.8,0-10.5,4.7-10.5,10.5v5.5c0,0.9,0.7,1.7,1.7,1.7h32c0.9,0,1.7-0.7,1.7-1.7V718
	C622.9,712.2,618.2,707.5,612.4,707.5z"/>
<path class="st1" d="M589.8,681h-4.4c-3.7,0-6.6,3-6.6,6.6v4.4c0,1.2,1,2.2,2.2,2.2s2.2-1,2.2-2.2v-4.4c0-1.2,1-2.2,2.2-2.2h4.4
	c1.2,0,2.2-1,2.2-2.2C592,682,591,681,589.8,681z"/>
<path class="st1" d="M589.8,729.6h-4.4c-1.2,0-2.2-1-2.2-2.2V723c0-1.2-1-2.2-2.2-2.2s-2.2,1-2.2,2.2v4.4c0,3.7,3,6.6,6.6,6.6h4.4
	c1.2,0,2.2-1,2.2-2.2C592,730.6,591,729.6,589.8,729.6z"/>
<path class="st1" d="M625.1,681h-4.4c-1.2,0-2.2,1-2.2,2.2c0,1.2,1,2.2,2.2,2.2h4.4c1.2,0,2.2,1,2.2,2.2v4.4c0,1.2,1,2.2,2.2,2.2
	s2.2-1,2.2-2.2v-4.4C631.8,684,628.8,681,625.1,681z"/>
<path class="st1" d="M629.5,720.8c-1.2,0-2.2,1-2.2,2.2v4.4c0,1.2-1,2.2-2.2,2.2h-4.4c-1.2,0-2.2,1-2.2,2.2c0,1.2,1,2.2,2.2,2.2h4.4
	c3.7,0,6.6-3,6.6-6.6v-4.4C631.8,721.7,630.8,720.8,629.5,720.8z"/>
<path class="st1" d="M727.2,466.1c4.9,0,8.8-4,8.8-8.8s-4-8.8-8.8-8.8c-4.9,0-8.8,4-8.8,8.8S722.4,466.1,727.2,466.1z"/>
<path class="st1" d="M734.4,470.5h-14.3c-5.8,0-10.5,4.7-10.5,10.5v5.5c0,0.9,0.7,1.7,1.7,1.7h32c0.9,0,1.7-0.7,1.7-1.7V481
	C744.9,475.2,740.2,470.5,734.4,470.5z"/>
<path class="st1" d="M711.8,444h-4.4c-3.7,0-6.6,3-6.6,6.6v4.4c0,1.2,1,2.2,2.2,2.2s2.2-1,2.2-2.2v-4.4c0-1.2,1-2.2,2.2-2.2h4.4
	c1.2,0,2.2-1,2.2-2.2C714,445,713,444,711.8,444z"/>
<path class="st1" d="M711.8,492.6h-4.4c-1.2,0-2.2-1-2.2-2.2V486c0-1.2-1-2.2-2.2-2.2s-2.2,1-2.2,2.2v4.4c0,3.7,3,6.6,6.6,6.6h4.4
	c1.2,0,2.2-1,2.2-2.2C714,493.6,713,492.6,711.8,492.6z"/>
<path class="st1" d="M747.1,444h-4.4c-1.2,0-2.2,1-2.2,2.2c0,1.2,1,2.2,2.2,2.2h4.4c1.2,0,2.2,1,2.2,2.2v4.4c0,1.2,1,2.2,2.2,2.2
	s2.2-1,2.2-2.2v-4.4C753.8,447,750.8,444,747.1,444z"/>
<path class="st1" d="M751.5,483.8c-1.2,0-2.2,1-2.2,2.2v4.4c0,1.2-1,2.2-2.2,2.2h-4.4c-1.2,0-2.2,1-2.2,2.2c0,1.2,1,2.2,2.2,2.2h4.4
	c3.7,0,6.6-3,6.6-6.6v-4.4C753.8,484.7,752.8,483.8,751.5,483.8z"/>
<path class="st1" d="M645.2,142.1c4.9,0,8.8-4,8.8-8.8s-4-8.8-8.8-8.8c-4.9,0-8.8,4-8.8,8.8S640.4,142.1,645.2,142.1z"/>
<path class="st1" d="M652.4,146.5h-14.3c-5.8,0-10.5,4.7-10.5,10.5v5.5c0,0.9,0.7,1.7,1.7,1.7h32c0.9,0,1.7-0.7,1.7-1.7V157
	C662.9,151.2,658.2,146.5,652.4,146.5z"/>
<path class="st1" d="M629.8,120h-4.4c-3.7,0-6.6,3-6.6,6.6v4.4c0,1.2,1,2.2,2.2,2.2s2.2-1,2.2-2.2v-4.4c0-1.2,1-2.2,2.2-2.2h4.4
	c1.2,0,2.2-1,2.2-2.2C632,121,631,120,629.8,120z"/>
<path class="st1" d="M629.8,168.6h-4.4c-1.2,0-2.2-1-2.2-2.2V162c0-1.2-1-2.2-2.2-2.2s-2.2,1-2.2,2.2v4.4c0,3.7,3,6.6,6.6,6.6h4.4
	c1.2,0,2.2-1,2.2-2.2C632,169.6,631,168.6,629.8,168.6z"/>
<path class="st1" d="M665.1,120h-4.4c-1.2,0-2.2,1-2.2,2.2c0,1.2,1,2.2,2.2,2.2h4.4c1.2,0,2.2,1,2.2,2.2v4.4c0,1.2,1,2.2,2.2,2.2
	s2.2-1,2.2-2.2v-4.4C671.8,123,668.8,120,665.1,120z"/>
<path class="st1" d="M669.5,159.8c-1.2,0-2.2,1-2.2,2.2v4.4c0,1.2-1,2.2-2.2,2.2h-4.4c-1.2,0-2.2,1-2.2,2.2c0,1.2,1,2.2,2.2,2.2h4.4
	c3.7,0,6.6-3,6.6-6.6v-4.4C671.8,160.7,670.8,159.8,669.5,159.8z"/>
<path class="st1" d="M351.2,582.1c4.9,0,8.8-4,8.8-8.8s-4-8.8-8.8-8.8c-4.9,0-8.8,4-8.8,8.8S346.4,582.1,351.2,582.1z"/>
<path class="st1" d="M358.4,586.5h-14.3c-5.8,0-10.5,4.7-10.5,10.5v5.5c0,0.9,0.7,1.7,1.7,1.7h32c0.9,0,1.7-0.7,1.7-1.7V597
	C368.9,591.2,364.2,586.5,358.4,586.5z"/>
<path class="st1" d="M335.8,560h-4.4c-3.7,0-6.6,3-6.6,6.6v4.4c0,1.2,1,2.2,2.2,2.2s2.2-1,2.2-2.2v-4.4c0-1.2,1-2.2,2.2-2.2h4.4
	c1.2,0,2.2-1,2.2-2.2C338,561,337,560,335.8,560z"/>
<path class="st1" d="M335.8,608.6h-4.4c-1.2,0-2.2-1-2.2-2.2V602c0-1.2-1-2.2-2.2-2.2s-2.2,1-2.2,2.2v4.4c0,3.7,3,6.6,6.6,6.6h4.4
	c1.2,0,2.2-1,2.2-2.2C338,609.6,337,608.6,335.8,608.6z"/>
<path class="st1" d="M371.1,560h-4.4c-1.2,0-2.2,1-2.2,2.2c0,1.2,1,2.2,2.2,2.2h4.4c1.2,0,2.2,1,2.2,2.2v4.4c0,1.2,1,2.2,2.2,2.2
	s2.2-1,2.2-2.2v-4.4C377.8,563,374.8,560,371.1,560z"/>
<path class="st1" d="M375.5,599.8c-1.2,0-2.2,1-2.2,2.2v4.4c0,1.2-1,2.2-2.2,2.2h-4.4c-1.2,0-2.2,1-2.2,2.2c0,1.2,1,2.2,2.2,2.2h4.4
	c3.7,0,6.6-3,6.6-6.6v-4.4C377.8,600.7,376.8,599.8,375.5,599.8z"/>
<path class="st1" d="M278.2,725.1c4.9,0,8.8-4,8.8-8.8s-4-8.8-8.8-8.8c-4.9,0-8.8,4-8.8,8.8S273.4,725.1,278.2,725.1z"/>
<path class="st1" d="M285.4,729.5h-14.3c-5.8,0-10.5,4.7-10.5,10.5v5.5c0,0.9,0.7,1.7,1.7,1.7h32c0.9,0,1.7-0.7,1.7-1.7V740
	C295.9,734.2,291.2,729.5,285.4,729.5z"/>
<path class="st1" d="M262.8,703h-4.4c-3.7,0-6.6,3-6.6,6.6v4.4c0,1.2,1,2.2,2.2,2.2s2.2-1,2.2-2.2v-4.4c0-1.2,1-2.2,2.2-2.2h4.4
	c1.2,0,2.2-1,2.2-2.2C265,704,264,703,262.8,703z"/>
<path class="st1" d="M262.8,751.6h-4.4c-1.2,0-2.2-1-2.2-2.2V745c0-1.2-1-2.2-2.2-2.2s-2.2,1-2.2,2.2v4.4c0,3.7,3,6.6,6.6,6.6h4.4
	c1.2,0,2.2-1,2.2-2.2C265,752.6,264,751.6,262.8,751.6z"/>
<path class="st1" d="M298.1,703h-4.4c-1.2,0-2.2,1-2.2,2.2c0,1.2,1,2.2,2.2,2.2h4.4c1.2,0,2.2,1,2.2,2.2v4.4c0,1.2,1,2.2,2.2,2.2
	s2.2-1,2.2-2.2v-4.4C304.8,706,301.8,703,298.1,703z"/>
<path class="st1" d="M302.5,742.8c-1.2,0-2.2,1-2.2,2.2v4.4c0,1.2-1,2.2-2.2,2.2h-4.4c-1.2,0-2.2,1-2.2,2.2c0,1.2,1,2.2,2.2,2.2h4.4
	c3.7,0,6.6-3,6.6-6.6v-4.4C304.8,743.7,303.8,742.8,302.5,742.8z"/>
<path class="st1" d="M208.2,448.1c4.9,0,8.8-4,8.8-8.8s-4-8.8-8.8-8.8c-4.9,0-8.8,4-8.8,8.8S203.4,448.1,208.2,448.1z"/>
<path class="st1" d="M215.4,452.5h-14.3c-5.8,0-10.5,4.7-10.5,10.5v5.5c0,0.9,0.7,1.7,1.7,1.7h32c0.9,0,1.7-0.7,1.7-1.7V463
	C225.9,457.2,221.2,452.5,215.4,452.5z"/>
<path class="st1" d="M192.8,426h-4.4c-3.7,0-6.6,3-6.6,6.6v4.4c0,1.2,1,2.2,2.2,2.2s2.2-1,2.2-2.2v-4.4c0-1.2,1-2.2,2.2-2.2h4.4
	c1.2,0,2.2-1,2.2-2.2C195,427,194,426,192.8,426z"/>
<path class="st1" d="M192.8,474.6h-4.4c-1.2,0-2.2-1-2.2-2.2V468c0-1.2-1-2.2-2.2-2.2s-2.2,1-2.2,2.2v4.4c0,3.7,3,6.6,6.6,6.6h4.4
	c1.2,0,2.2-1,2.2-2.2C195,475.6,194,474.6,192.8,474.6z"/>
<path class="st1" d="M228.1,426h-4.4c-1.2,0-2.2,1-2.2,2.2c0,1.2,1,2.2,2.2,2.2h4.4c1.2,0,2.2,1,2.2,2.2v4.4c0,1.2,1,2.2,2.2,2.2
	s2.2-1,2.2-2.2v-4.4C234.8,429,231.8,426,228.1,426z"/>
<path class="st1" d="M232.5,465.8c-1.2,0-2.2,1-2.2,2.2v4.4c0,1.2-1,2.2-2.2,2.2h-4.4c-1.2,0-2.2,1-2.2,2.2c0,1.2,1,2.2,2.2,2.2h4.4
	c3.7,0,6.6-3,6.6-6.6v-4.4C234.8,466.7,233.8,465.8,232.5,465.8z"/>
</svg>
