<?xml version="1.0" encoding="utf-8"?>
<!-- Generator: Adobe Illustrator 24.3.0, SVG Export Plug-In . SVG Version: 6.00 Build 0)  -->
<svg version="1.1" id="Layer_1" xmlns="http://www.w3.org/2000/svg" xmlns:xlink="http://www.w3.org/1999/xlink" x="0px" y="0px"
	 viewBox="0 0 255.2 50.3" style="enable-background:new 0 0 255.2 50.3;" xml:space="preserve">
<style type="text/css">
	.st0{fill:#9097FD;}
</style>
<path class="st0" d="M27.2,36.9H14.7l-1.9,5.8H2.5L15.3,7.4h11.3l12.8,35.2H29.1L27.2,36.9z M24.7,29.4L20.9,18l-3.8,11.4H24.7z
	 M57.7,34.3v8.3h-4.2c-7.2,0-10.8-3.5-10.8-10.7v-9.2h-3.5v-8.2h3.5V7.8h9.8v6.8h5.1v8.2h-5.1v9.4c0,0.8,0.2,1.3,0.5,1.7
	c0.4,0.3,1,0.5,1.8,0.5H57.7z M77.2,34.3v8.3H73c-7.2,0-10.8-3.5-10.8-10.7v-9.2h-3.5v-8.2h3.5V7.8h9.9v6.8h5.1v8.2h-5.1v9.4
	c0,0.8,0.2,1.3,0.5,1.7c0.4,0.3,1,0.5,1.8,0.5H77.2z M107,28.3c0,0.8,0,1.5-0.2,2.3H88.3c0.1,1.5,0.5,2.7,1.2,3.5
	c0.8,0.7,1.7,1.1,2.9,1.1c1.6,0,2.8-0.7,3.5-2.2h10.4c-0.4,1.9-1.3,3.7-2.6,5.2c-1.2,1.5-2.8,2.7-4.7,3.5s-4,1.3-6.3,1.3
	c-2.8,0-5.2-0.6-7.4-1.8c-2.1-1.2-3.8-2.8-5.1-5c-1.2-2.2-1.8-4.7-1.8-7.6s0.6-5.5,1.8-7.6c1.2-2.2,2.9-3.8,5-5
	c2.2-1.2,4.7-1.8,7.4-1.8c2.8,0,5.2,0.6,7.4,1.7c2.1,1.1,3.8,2.8,5,4.9C106.4,22.9,107,25.4,107,28.3z M97,25.8
	c0-1.2-0.4-2.1-1.2-2.8c-0.8-0.7-1.8-1-3-1c-1.2,0-2.2,0.3-3,1c-0.8,0.6-1.3,1.6-1.5,2.9H97z M127.9,14.3c3.2,0,5.8,1.1,7.7,3.3
	c1.9,2.1,2.9,5,2.9,8.7v16.4h-9.8V27.6c0-1.6-0.4-2.9-1.2-3.8c-0.8-0.9-1.9-1.4-3.3-1.4c-1.5,0-2.6,0.5-3.4,1.4
	c-0.8,0.9-1.2,2.1-1.2,3.8v15.1h-9.8V14.6h9.8v4c0.9-1.3,2-2.3,3.5-3.1C124.3,14.7,126,14.3,127.9,14.3z M158.8,34.3v8.3h-4.2
	c-7.2,0-10.8-3.5-10.8-10.7v-9.2h-3.4v-8.2h3.4V7.8h9.8v6.8h5.1v8.2h-5.1v9.4c0,0.8,0.2,1.3,0.5,1.7c0.4,0.3,1,0.5,1.8,0.5H158.8z
	 M166.8,12c-1.7,0-3.1-0.5-4.2-1.4c-1-1-1.6-2.2-1.6-3.6c0-1.5,0.5-2.7,1.6-3.7c1.1-1,2.5-1.5,4.2-1.5c1.7,0,3.1,0.5,4.1,1.5
	c1.1,1,1.6,2.2,1.6,3.7c0,1.4-0.5,2.6-1.6,3.6C169.9,11.5,168.5,12,166.8,12z M171.6,14.6v28.1h-9.8V14.6H171.6z M188.8,43
	c-2.8,0-5.3-0.6-7.6-1.8c-2.2-1.2-3.9-2.8-5.2-5c-1.3-2.2-1.9-4.7-1.9-7.6c0-2.9,0.6-5.4,1.9-7.6c1.3-2.2,3.1-3.8,5.2-5
	c2.2-1.2,4.8-1.8,7.6-1.8s5.3,0.6,7.5,1.8c2.2,1.2,4,2.8,5.2,5c1.3,2.2,1.9,4.7,1.9,7.6s-0.6,5.5-1.9,7.6c-1.3,2.2-3,3.8-5.2,5
	C194.1,42.4,191.6,43,188.8,43z M188.8,34.5c1.4,0,2.5-0.5,3.4-1.5c0.9-1,1.4-2.5,1.4-4.4c0-1.9-0.5-3.4-1.4-4.4
	c-0.9-1-2-1.5-3.4-1.5c-1.3,0-2.4,0.5-3.4,1.5c-0.9,1-1.3,2.4-1.3,4.4c0,1.9,0.4,3.4,1.3,4.4C186.3,34,187.4,34.5,188.8,34.5z
	 M224.4,14.3c3.2,0,5.8,1.1,7.7,3.3c1.9,2.1,2.9,5,2.9,8.7v16.4h-9.8V27.6c0-1.6-0.4-2.9-1.2-3.8c-0.8-0.9-1.9-1.4-3.4-1.4
	c-1.5,0-2.6,0.5-3.4,1.4c-0.8,0.9-1.2,2.1-1.2,3.8v15.1H206V14.6h9.8v4c0.9-1.3,2-2.3,3.5-3.1C220.8,14.7,222.5,14.3,224.4,14.3z
	 M251.9,5.6l-1.1,23.8h-8.4l-1.1-23.8H251.9z M246.6,43c-1.7,0-3.1-0.5-4.2-1.4c-1-1-1.6-2.2-1.6-3.7c0-1.5,0.5-2.7,1.6-3.6
	c1.1-1,2.5-1.5,4.2-1.5c1.7,0,3.1,0.5,4.1,1.5c1.1,1,1.6,2.2,1.6,3.6c0,1.4-0.5,2.6-1.6,3.6C249.7,42.5,248.3,43,246.6,43z"/>
</svg>
