<?xml version="1.0" encoding="utf-8"?>
<!-- Generator: Adobe Illustrator 24.3.0, SVG Export Plug-In . SVG Version: 6.00 Build 0)  -->
<svg version="1.1" id="Layer_1" xmlns="http://www.w3.org/2000/svg" xmlns:xlink="http://www.w3.org/1999/xlink" x="0px" y="0px"
	 viewBox="0 0 63.9 63.9" style="enable-background:new 0 0 63.9 63.9;" xml:space="preserve">
<style type="text/css">
	.st0{fill:none;stroke:#C4C7CE;}
	.st1{clip-path:url(#SVGID_2_);}
	.st2{fill:#C4C7CE;}
	.st3{clip-path:url(#SVGID_4_);}
</style>
<circle class="st0" cx="31.9" cy="31.9" r="30.5"/>
<g>
	<defs>
		<rect id="SVGID_1_" x="15.8" y="13.3" width="32.2" height="37.2"/>
	</defs>
	<clipPath id="SVGID_2_">
		<use xlink:href="#SVGID_1_"  style="overflow:visible;"/>
	</clipPath>
	<g class="st1">
		<path class="st2" d="M31.7,31.3c2.6,0,4.8-0.9,6.6-2.6c1.8-1.7,2.7-3.9,2.7-6.3c0-2.5-0.9-4.6-2.7-6.3c-1.8-1.7-4-2.6-6.6-2.6
			c-2.6,0-4.8,0.9-6.6,2.6c-1.8,1.7-2.7,3.9-2.7,6.3c0,2.5,0.9,4.6,2.7,6.3C26.9,30.4,29.1,31.3,31.7,31.3z"/>
		<path class="st2" d="M48,42c-0.1-0.7-0.2-1.5-0.3-2.4c-0.2-0.8-0.4-1.6-0.6-2.4c-0.2-0.7-0.6-1.5-1-2.2c-0.4-0.7-1-1.4-1.5-1.9
			c-0.6-0.6-1.3-1-2.2-1.3c-0.8-0.3-1.8-0.5-2.8-0.5c-0.4,0-0.8,0.2-1.5,0.6c-0.5,0.3-1,0.6-1.6,1c-0.5,0.3-1.2,0.6-2,0.9
			c-0.8,0.3-1.7,0.4-2.5,0.4c-0.8,0-1.7-0.1-2.5-0.4c-0.8-0.3-1.5-0.6-2-0.9c-0.6-0.4-1.1-0.7-1.6-1c-0.7-0.5-1.1-0.6-1.5-0.6
			c-1,0-1.9,0.2-2.8,0.5c-0.9,0.3-1.6,0.8-2.2,1.3c-0.6,0.5-1.1,1.2-1.5,1.9c-0.4,0.7-0.8,1.5-1,2.2c-0.2,0.7-0.4,1.5-0.6,2.4
			c-0.2,0.8-0.3,1.6-0.3,2.4c-0.1,0.7-0.1,1.5-0.1,2.2c0,1.9,0.6,3.5,1.9,4.7c1.3,1.1,2.9,1.7,4.9,1.7h18.6c2,0,3.7-0.6,4.9-1.7
			c1.3-1.2,1.9-2.7,1.9-4.7C48.1,43.4,48,42.7,48,42z"/>
	</g>
</g>
<circle class="st0" cx="31.9" cy="31.9" r="30.5"/>
<g>
	<defs>
		<rect id="SVGID_3_" x="15.8" y="13.3" width="32.2" height="37.2"/>
	</defs>
	<clipPath id="SVGID_4_">
		<use xlink:href="#SVGID_3_"  style="overflow:visible;"/>
	</clipPath>
	<g class="st3">
		<path class="st2" d="M31.7,31.3c2.6,0,4.8-0.9,6.6-2.6c1.8-1.7,2.7-3.9,2.7-6.3c0-2.5-0.9-4.6-2.7-6.3c-1.8-1.7-4-2.6-6.6-2.6
			c-2.6,0-4.8,0.9-6.6,2.6c-1.8,1.7-2.7,3.9-2.7,6.3c0,2.5,0.9,4.6,2.7,6.3C26.9,30.4,29.1,31.3,31.7,31.3z"/>
		<path class="st2" d="M48,42c-0.1-0.7-0.2-1.5-0.3-2.4c-0.2-0.8-0.4-1.6-0.6-2.4c-0.2-0.7-0.6-1.5-1-2.2c-0.4-0.7-1-1.4-1.5-1.9
			c-0.6-0.6-1.3-1-2.2-1.3c-0.8-0.3-1.8-0.5-2.8-0.5c-0.4,0-0.8,0.2-1.5,0.6c-0.5,0.3-1,0.6-1.6,1c-0.5,0.3-1.2,0.6-2,0.9
			c-0.8,0.3-1.7,0.4-2.5,0.4c-0.8,0-1.7-0.1-2.5-0.4c-0.8-0.3-1.5-0.6-2-0.9c-0.6-0.4-1.1-0.7-1.6-1c-0.7-0.5-1.1-0.6-1.5-0.6
			c-1,0-1.9,0.2-2.8,0.5c-0.9,0.3-1.6,0.8-2.2,1.3c-0.6,0.5-1.1,1.2-1.5,1.9c-0.4,0.7-0.8,1.5-1,2.2c-0.2,0.7-0.4,1.5-0.6,2.4
			c-0.2,0.8-0.3,1.6-0.3,2.4c-0.1,0.7-0.1,1.5-0.1,2.2c0,1.9,0.6,3.5,1.9,4.7c1.3,1.1,2.9,1.7,4.9,1.7h18.6c2,0,3.7-0.6,4.9-1.7
			c1.3-1.2,1.9-2.7,1.9-4.7C48.1,43.4,48,42.7,48,42z"/>
	</g>
</g>
</svg>
