<?xml version="1.0" encoding="utf-8"?>
<!-- Generator: Adobe Illustrator 24.3.0, SVG Export Plug-In . SVG Version: 6.00 Build 0)  -->
<svg version="1.1" id="Layer_1" xmlns="http://www.w3.org/2000/svg" xmlns:xlink="http://www.w3.org/1999/xlink" x="0px" y="0px"
	 viewBox="0 0 1920 939" style="enable-background:new 0 0 1920 939;" xml:space="preserve">
<style type="text/css">
	.st0{fill:#F6F7FB;}
	.st1{fill:#FFFFFF;}
</style>
<path class="st0" d="M1920-1h-231.8c14.6,31.3,22.8,66.2,22.8,103c0,134.8-109.2,244-244,244s-244-109.2-244-244
	c0-36.8,8.2-71.7,22.8-103H0v544.4C63.5,468.5,158.2,421,264,421c191.1,0,346,154.9,346,346c0,62.2-16.4,120.6-45.2,171H1920V-1z"/>
<path class="st1" d="M264,421C158.2,421,63.5,468.5,0,543.4V938h564.8c28.7-50.4,45.2-108.8,45.2-171C610,575.9,455.1,421,264,421z"
	/>
<path class="st1" d="M1467,346c134.8,0,244-109.2,244-244c0-36.8-8.2-71.7-22.8-103h-442.5c-14.6,31.3-22.8,66.2-22.8,103
	C1223,236.8,1332.2,346,1467,346z"/>
</svg>
