<?xml version="1.0" encoding="utf-8"?>
<!-- Generator: Adobe Illustrator 24.1.0, SVG Export Plug-In . SVG Version: 6.00 Build 0)  -->
<svg version="1.1" id="Layer_1" xmlns="http://www.w3.org/2000/svg" xmlns:xlink="http://www.w3.org/1999/xlink" x="0px" y="0px"
	 viewBox="0 0 84 84" style="enable-background:new 0 0 84 84;" xml:space="preserve">
<style type="text/css">
	.st0{fill:#00D39D;}
	.st1{fill:#FF4933;}
</style>
<g id="XMLID_1_">
	<path id="XMLID_3_" class="st0" d="M68.16,27.97H57.4l-2.29-6.12c-0.33-0.89-1.18-1.48-2.13-1.48H31.71c-0.95,0-1.8,0.59-2.13,1.48
		l-2.29,6.12H16.53c-2.1,0-3.8,1.7-3.8,3.8v30.37c0,2.1,1.7,3.8,3.8,3.8h51.64c2.1,0,3.8-1.7,3.8-3.8V31.77
		C71.96,29.67,70.26,27.97,68.16,27.97z M42.35,32.53c7.96,0,14.43,6.47,14.43,14.43S50.3,61.38,42.35,61.38
		s-14.43-6.47-14.43-14.43S34.39,32.53,42.35,32.53z"/>
	<path id="XMLID_2_" class="st0" d="M32.47,46.96c0,5.44,4.43,9.87,9.87,9.87s9.87-4.43,9.87-9.87s-4.43-9.87-9.87-9.87
		S32.47,41.51,32.47,46.96z"/>
</g>
<path class="st1" d="M13.7,74.26c-0.26,0-0.52-0.1-0.72-0.3c-0.4-0.4-0.4-1.04,0-1.44l57.28-57.28c0.4-0.4,1.04-0.4,1.44,0
	c0.4,0.4,0.4,1.04,0,1.44L14.42,73.96C14.22,74.16,13.96,74.26,13.7,74.26z"/>
</svg>
