<?xml version="1.0" encoding="utf-8"?>
<!-- Generator: Adobe Illustrator 24.1.0, SVG Export Plug-In . SVG Version: 6.00 Build 0)  -->
<svg version="1.1" id="Layer_1" xmlns="http://www.w3.org/2000/svg" xmlns:xlink="http://www.w3.org/1999/xlink" x="0px" y="0px"
	 viewBox="0 0 84 84" style="enable-background:new 0 0 84 84;" xml:space="preserve">
<style type="text/css">
	.st0{fill:#00D39D;}
	.st1{fill:#FF4933;}
</style>
<g>
	<g>
		<path class="st0" d="M42,52.27c2.83,0,5.24-1.01,7.26-3.02c2.01-2.01,3.02-4.43,3.02-7.26V25.56c0-2.83-1.01-5.24-3.02-7.26
			c-2.01-2.01-4.43-3.02-7.26-3.02c-2.83,0-5.24,1.01-7.26,3.02c-2.01,2.01-3.02,4.43-3.02,7.26V42c0,2.83,1.01,5.24,3.02,7.26
			C36.76,51.27,39.17,52.27,42,52.27z"/>
		<path class="st0" d="M59.88,36.45c-0.41-0.41-0.89-0.61-1.44-0.61c-0.56,0-1.04,0.2-1.44,0.61c-0.41,0.41-0.61,0.89-0.61,1.44V42
			c0,3.96-1.41,7.35-4.22,10.16c-2.81,2.81-6.2,4.22-10.16,4.22c-3.96,0-7.35-1.41-10.16-4.22c-2.81-2.81-4.22-6.2-4.22-10.16v-4.11
			c0-0.56-0.2-1.04-0.61-1.44c-0.41-0.41-0.89-0.61-1.44-0.61c-0.56,0-1.04,0.2-1.44,0.61c-0.41,0.41-0.61,0.89-0.61,1.44V42
			c0,4.73,1.58,8.85,4.74,12.34c3.16,3.5,7.06,5.51,11.7,6.02v4.24h-8.22c-0.56,0-1.04,0.2-1.44,0.61
			c-0.41,0.41-0.61,0.89-0.61,1.44c0,0.56,0.2,1.04,0.61,1.44c0.41,0.41,0.89,0.61,1.44,0.61h20.55c0.56,0,1.04-0.2,1.44-0.61
			c0.41-0.41,0.61-0.89,0.61-1.44c0-0.56-0.2-1.04-0.61-1.44c-0.41-0.41-0.89-0.61-1.44-0.61h-8.22v-4.24
			c4.64-0.51,8.54-2.52,11.7-6.02c3.16-3.5,4.74-7.61,4.74-12.34v-4.11C60.49,37.33,60.29,36.85,59.88,36.45z"/>
	</g>
</g>
<path class="st1" d="M13.36,74.66c-0.26,0-0.52-0.1-0.72-0.3c-0.4-0.4-0.4-1.04,0-1.44l57.28-57.28c0.4-0.4,1.04-0.4,1.44,0
	c0.4,0.4,0.4,1.04,0,1.44L14.08,74.36C13.88,74.56,13.62,74.66,13.36,74.66z"/>
</svg>
